<?xml version="1.0" encoding="UTF-8"?>
<svg id="Layer_1" xmlns="http://www.w3.org/2000/svg" version="1.1" viewBox="0 0 540.57 527.36">
  <!-- Generator: Adobe Illustrator 30.1.0, SVG Export Plug-In . SVG Version: 2.1.1 Build 136)  -->
  <defs>
    <style>
      .st0 {
        display: none;
      }
    </style>
  </defs>
  <path d="M378.07,406.29c1.9,3.74,3.33,7.36,5.43,10.53,2.87,4.34,1.58,6.93-2.23,9.9-17.53,13.64-35.97,25.86-55.68,36.1-9.9,5.14-19.94,10-29.93,14.96-1.31.65-2.57,1.58-4.31,1.25-1.39-1.89-.77-4.11-.78-6.18-.04-36.83-.03-73.66-.03-110.48,0-2.67.02-5.31-.87-7.9-1.68-4.91-5.62-8.08-9.8-7.72-4.42.39-8.03,4.37-8.57,9.64-.19,1.82-.09,3.66-.09,5.5,0,39.33-.1,78.66.12,117.98.03,5.3-1.26,8.15-6.67,9.56-8.36,2.17-16.52,5.09-24.75,7.71-1.28.41-2.52.85-3.85.38-1.05-1.4-.54-2.95-.54-4.4-.02-43.33-.03-86.65.02-129.98,0-3.4-.42-6.67-1.93-9.69-1.89-3.78-4.84-7.06-9.23-6.18-4.45.89-7.4,4.42-8.08,9.17-.31,2.13-.17,4.32-.17,6.49,0,44.16-.1,88.32.13,132.48.03,5.09-1.76,7.15-6.39,8.08-6.19,1.23-12.36,2.61-18.41,4.38-4.55,1.33-5.86.02-5.83-4.58.15-22.33.06-44.66.06-66.99,0-32.83.04-65.66-.1-98.48-.02-3.77.91-6.01,4.54-7.76,11.96-5.75,20.18-15.24,24.68-27.59,1.65-4.53,4.03-5.52,8.41-5.51,33.99.15,67.99.08,101.98.07,5.97,0,14.02-6.16,15.62-11.85.63-2.25-.22-3.67-2.34-4.11-1.61-.34-3.31-.28-4.97-.27-36.32.16-72.65.24-108.97.6-4.94.05-6.47-1.55-7.17-6.34-3.12-21.57-21.96-37.95-42.76-37.24-18.29.62-35.09,16.32-32.45,35.94,1.33,9.91,10.43,19.07,19.88,19.31,1.79.04,3.66.29,5.14-1.12-.24-1.07-1.16-1.22-1.9-1.46-9.24-2.98-14.14-11.76-12.58-21.76,1.32-8.44,9.68-15.69,18.97-16.63,15.94-1.61,29.53,11.24,30.72,27.25,2.02,27.16-26.25,50.13-58.18,36.68-20.31-8.55-31.89-29.83-31-51.84,1.16-28.75,25.17-54.01,59.29-53.98,51.66.06,103.32-.06,154.98-.12,7.49,0,10.07-3.15,9.04-10.69-.27-2-1.22-3.08-3.09-3.29-2.15-.23-4.31-.36-6.47-.35-48.82.31-97.63.66-146.45.98-7.89.05-8.66-1.04-9.02-8.9-.8-17.46-1.81-34.91-1.93-52.39-.05-6.79.62-7.4,7.48-7.41,32.99-.06,65.99-.04,98.98-.17,24.32-.1,48.65-.29,72.97-.67,4.47-.07,7.09.83,7.94,5.77,2.61,15.12,12.43,23.77,26.52,28.14,3.13.97,4.91,2.62,6.16,5.75,3.92,9.87,6.04,19.93,5.75,30.63-.33,12.65-.05,25.32-1.15,37.94-.35,4.05,1.25,6.51,4.81,8.34,15.41,7.92,30.71,16.03,46.11,23.96,2.17,1.12,4.06,2.15,4.54,4.79,2.4,12.96,10.84,21.05,22.04,26.66,3.94,1.97,4.64,3.84,2.81,8.03-14.51,33.42-34.6,62.94-60.65,88.43-2.32,2.27-4.76,3.23-8,3.16-7.83-.17-15.66-.08-23.5-.03-6.31.04-6.96,1.13-4.3,7.48v.04Z"/>
  <path d="M55.26,229.24c1.67,6.66.1,13.3,2.82,20.42,3.03-15.23,7.83-28.97,13.24-42.51.9-2.25-.43-4.24-1.27-6.19-5.53-12.85-8.74-26.25-8.36-40.24.68-25.5,10.77-47.36,26.8-66.77.4-.48,1.04-.75,2.45-1.74,8.19,28.61,6.75,56.27-1.95,84.06,3.1-3.83,6.18-7.67,9.3-11.47,5.08-6.19,10.37-12.28,16.51-17.37,6.01-4.99,7.66-11.25,7.71-18.41.3-37.99,21.39-62.3,52.6-79.94.66-.37,1.53-.39,3.08-.75-1.07,25.68-9.06,48.15-25.52,67.42,1.55,1.5,2.56.41,3.35-.07,10.52-6.48,21.66-11.75,32.91-16.79,2.66-1.19,4.72-2.81,6.54-5.14,12.67-16.22,28.12-28.45,48.93-32.19,14.86-2.67,29.79-2.32,44.61.75.6.12,1.12.6,2.1,1.15-4.85,6.9-10.8,12.38-17.07,17.44-19.74,15.94-42.22,24.37-67.75,23.79-5.64-.13-10.69,1.01-15.87,3.3-32.02,14.13-60.02,33.71-83.08,60.17-1.3,1.49-2.75,2.9-3.69,5.98,14.84-9.74,29.15-18.84,47.79-17.27-1.72,8.19-5.67,14.27-10.38,19.87-14.36,17.07-32.15,28.25-54.63,31.05-3.81.47-6.24,2.01-7.82,5.76-6.12,14.48-10.65,29.39-13.1,44.91-.51,3.24.34,6.65-1.12,9.93,8.62-20.46,17.36-40.71,41.93-47.41,1.93,5.75.49,10.75-.76,15.65-5.64,22.14-17.45,40.63-34.54,55.56-5.61,4.9-6.97,9.85-5.84,16.89,4.07,25.45,12.32,49.22,27.4,71.98-6.72-24.68-9.3-47.74,4.86-70.06,4.36,3.12,6.05,7.12,7.79,10.95,9.55,20.97,10,42.81,5.52,64.95-3.1,15.3-3.44,15.38,8.1,26.18,10.6,9.91,21.96,18.91,34.34,26.56,6.72,4.15,7.12,5.22,5.23,13.52-2.41.7-4.09-.97-5.86-2.03-32.64-19.45-58.51-45.49-76.58-79.03-2.09-3.88-4.72-6.27-8.92-7.91-36.04-14.11-56.32-40.46-60.67-79-.35-3.12-1.39-6.18-.32-9.32,16.46-.16,40.29,25.32,54.48,57.96-1.7-8.64-3.46-17.28-4.31-26.05-.53-5.46-1.67-10.96-1.35-16.37.4-6.84-2.41-11.42-6.97-16.09-13.32-13.65-22.4-29.78-25.86-48.69-3.67-20.09-1.25-39.65,6.17-59.99,15.85,18.56,24.51,39,27.02,62.63v-.03Z"/>
  <path class="st0" d="M504.8,615.88c3.12,17.13,1.94,33.27-7.17,48.08-10.21,16.59-25.84,25.05-44.65,26.44-16.06,1.19-32.27.25-48.27.25-1.67-1.69-1.14-3.63-1.14-5.38-.04-35.81.03-71.63-.1-107.44-.01-4.16.91-6.02,5.53-5.82,14.79.62,29.62-.65,44.41,1,23.42,2.62,45.14,15.75,51.4,42.87M426.21,634.9c0,10.15.15,20.29-.07,30.43-.1,4.4,1.6,5.97,5.86,5.79,5.15-.22,10.31.06,15.46-.1,16.41-.52,29.22-10.66,33.59-26.37,1.72-6.19,1.86-12.5,1.39-18.78-1.21-16.39-11.3-28.15-27.27-32.26-7.49-1.93-15.12-1.8-22.77-1.83-4.69-.02-6.38,1.98-6.28,6.69.25,11.8.08,23.62.08,36.42h.01Z"/>
  <path class="st0" d="M79.64,833.8c-14.37.02-14.42.03-18.52-13.51-8.18-27.05-16.33-54.11-24.4-81.19-.5-1.67-1.6-3.38-.54-5.96,5.33,0,10.93-.07,16.54.03,2.8.05,2.74,2.65,3.23,4.4,5.49,19.33,10.86,38.7,16.31,58.05.71,2.51,1.06,5.18,2.84,7.6,1.84-1.38,1.97-3.46,2.51-5.24,5.98-19.9,12.02-39.78,17.76-59.75,1.13-3.91,2.9-5.24,6.93-5.24,13.38,0,13.49-.18,17.38,12.53,5.3,17.32,10.39,34.7,15.61,52.04.71,2.36,1.62,4.66,2.86,8.22,3.34-11.42,6.37-21.66,9.33-31.93,3.4-11.82,6.89-23.62,9.99-35.52,1.09-4.17,3.09-5.66,7.3-5.35,4.44.33,8.92.07,13.28.07.84,3.04-.51,5.15-1.15,7.28-8.95,29.43-18.04,58.81-26.97,88.24-1.12,3.7-2.76,5.37-6.95,5.34-14.33-.1-14.28.06-18.54-13.86-5.4-17.65-10.89-35.26-16.36-52.89-.33-1.06-.79-2.08-1.57-4.1-5.29,16.94-10.28,32.92-15.27,48.9-1.83,5.87-3.73,11.73-5.45,17.63-.86,2.98-2.42,4.66-6.16,4.21h.01Z"/>
  <path class="st0" d="M167.97,584.32c17.05,18.13,11.13,44.09-13.94,59.47,10.06,15.15,20.11,30.29,30.41,45.8-4.59,2.13-8.75,1.1-12.74,1.15-13.54.15-13.48.02-20.67-11.4-6.03-9.58-12.2-19.06-18.34-28.57-1.8-2.79-13.01-4.64-15.53-2.56-1.5,1.24-1.05,3.07-1.05,4.68-.04,10.82-.16,21.65.03,32.47.07,4.04-1.17,5.8-5.39,5.5-3.98-.28-8-.29-11.98,0-4.3.31-5.34-1.59-5.31-5.56.15-17.48.07-34.97.06-52.45,0-18.32.11-36.63-.08-54.95-.05-4.35,1.28-5.89,5.69-5.74,14.13.48,28.28-.72,42.4.86,9.86,1.1,18.73,4.32,26.42,11.3M146.07,594.59c-8.78-4.54-18.22-2.45-27.42-2.64-2.16-.05-2.53,1.84-2.53,3.61-.02,9.64-.02,19.27,0,28.91,0,1.76.26,3.5,2.54,3.53,8.11.08,16.3.89,24.14-2.08,5.86-2.22,9.95-6.22,10.65-12.62.78-7.1.67-14.13-7.37-18.7h-.01Z"/>
  <path class="st0" d="M4.72,668.62c11.61,6.42,23.66,5.68,32.56-1.73,7.35-6.12,9.07-14.58,9.18-23.38.24-20.83.08-41.66.08-62.49,0-5.32,2.74-7.98,8.23-7.99,2.33,0,4.69.23,6.99-.05,4.86-.57,6.66.99,6.59,6.26-.28,23.32.05,46.66-.17,69.98-.22,23.72-17.35,41.54-40.86,43.63-10.33.92-20.31.13-29.78-3.96-18.13-7.82-26.13-22.91-26.79-41.6-.81-22.97-.11-45.98-.27-68.98-.03-4.19,1.39-5.64,5.48-5.36,3.98.27,8.01.28,11.99,0,4.21-.3,5.39,1.4,5.36,5.47-.16,21.49-.25,42.99,0,64.49.12,9.88,2.2,19.26,11.41,25.69v.02Z"/>
  <path class="st0" d="M268.78,690.79c-4.32,0-8.17-.25-11.97.04-4.29.33-5.38-1.54-5.34-5.52.17-13.81.06-27.63.06-41.44,0-21.97.11-43.94-.09-65.91-.04-4.61,1.45-6.12,6-5.94,13.95.55,27.98-.97,41.86,1.11,14.05,2.1,27.44,6.39,33.82,20.54,9.09,20.15,2.24,50.27-29.16,55.08-8.12,1.25-16.26,1.03-24.4.9-4.03-.06-5.57,1.21-5.45,5.44.27,10.15-.02,20.31.14,30.46.06,3.69-.87,5.84-5.49,5.24M274.22,601.98c0,7.66.01,15.33,0,22.99,0,2.1.03,4.24,2.94,4.17,7.79-.18,15.65.85,23.28-1.67,9.08-3,12.9-9.16,12.06-19.78-.6-7.69-6.19-13.41-14.48-14.9-6.27-1.13-12.59-1.03-18.92-.99-3.56.02-5.24,1.58-4.91,5.21.12,1.32.02,2.66.02,4.96h0Z"/>
  <path class="st0" d="M644.11,571.15c11.71-1.95,22.63-.84,32.98,4.19,8.9,4.33,13.62,11.87,15.78,21.28.54,2.37-.03,3.68-2.63,4.3-4.36,1.04-8.64,2.41-12.92,3.73-2.4.74-3.54-.14-4.52-2.38-5.29-12.1-16.52-16.35-28.24-10.94-5,2.31-7.97,6.17-8.2,11.57-.22,5.23,2.49,9.12,7.09,11.73,6.41,3.65,13.49,5.63,20.3,8.29,4.64,1.82,9.27,3.68,13.84,5.67,22.33,9.76,19.67,40.06,8.58,51.61-10.15,10.57-22.68,13.78-36.77,12.91-8.44-.52-16.37-2.68-23.66-7.04-9.16-5.48-14.1-13.72-16.06-24.4,6.39-2.77,12.9-4.59,19.23-6.47,2.2,1.57,2.27,3.93,3.14,5.84,5.78,12.6,23.21,17.35,34.5,9.35,7.18-5.08,7.2-16.81-.07-21.93-5.37-3.78-11.59-5.73-17.73-7.84-5.18-1.78-10.36-3.61-15.44-5.67-16.69-6.77-20.85-19.17-18.13-36.07,2.59-16.04,13.62-24.01,28.94-27.73h0Z"/>
  <path class="st0" d="M524.54,605.4c0-9.66.14-18.83-.05-27.99-.08-3.79,1.03-5.32,5.07-5.28,20.16.19,40.32.22,60.47.12,3.81-.02,5.24,1.07,5.29,5.1.16,14.94.29,14.98-14.38,14.95-9.33-.02-18.65-.09-27.98-.31-3.84-.09-5.95.92-5.79,5.31.25,6.49.18,13,.02,19.49-.08,3.28,1.2,4.38,4.41,4.35,11.49-.12,22.99.07,34.48-.1,3.82-.06,5.53,1.12,5.2,5.14-.27,3.31-.22,6.67-.02,9.99.21,3.49-1.21,4.66-4.65,4.62-11.16-.15-22.33.14-33.48-.15-4.62-.12-6.21,1.38-5.98,6,.33,6.48.3,13,0,19.48-.19,4.1,1.45,5.12,5.25,5.07,12.83-.18,25.66.06,38.48-.18,4.45-.08,6.18,1.14,6.13,5.87-.17,13.93,0,13.93-14.01,13.93-17.66,0-35.32.02-52.98,0-1.62,0-3.33.41-5.49-.94v-84.47Z"/>
  <path class="st0" d="M596.54,822.38c0-27.99.13-55.48-.1-82.97-.04-5.02,1.46-6.12,6.41-6.6,9.38-.92,15.14,2.67,20.69,10.1,15.16,20.26,31.21,39.85,46.89,59.73.7.89,1.2,1.93,1.79,2.91.44-.26.87-.52,1.31-.78v-11.81c0-18.16.1-36.32-.07-54.48-.04-4.05,1.15-5.62,5.36-5.49,15.22.48,12.87-2.33,12.97,12.89.18,27.16-.06,54.32.13,81.48.03,4.91-1.35,6.3-6.43,6.69-9.32.71-15.5-2.14-21.29-9.93-14.79-19.9-30.69-38.98-46.14-58.4-.6-.75-1.1-1.57-1.65-2.36-.39.21-.78.41-1.18.62v69.38c-5.65.84-10.78.4-15.89.36-2.2-.02-2.76-1.44-2.77-3.32,0-2.5-.03-5-.04-8v-.02Z"/>
  <path class="st0" d="M-94.12,573.03c13.66,0,26.82.13,39.98-.06,4.1-.06,5.45,1.25,5.46,5.4.03,14.29.18,14.29-13.97,14.3-9.99,0-19.99.12-29.98-.04-3.89-.06-5.35,1.37-5.2,5.28.23,6.15.29,12.34-.02,18.48-.21,4.29,1.06,5.9,5.58,5.78,10.99-.29,21.99.1,32.98-.19,4.51-.12,5.63,1.49,5.6,5.76-.08,13.07.08,13.07-13.22,13.07-8.33,0-16.66-.01-24.99.02-1.8,0-3.67-.28-5.84.98v27.18c0,3.28,2.37,3.06,4.57,3.07,13.16,0,26.32.17,39.48-.07,4.5-.08,6.06,1.25,6.01,5.9-.13,13.45.06,13.44-13.5,13.44-17.82,0-35.65-.06-53.47.14-4.23.05-5.89-1.11-5.87-5.61.14-35.81.13-71.63,0-107.44-.02-4.13,1.29-5.58,5.42-5.42,6.82.26,13.66.07,20.99.06v-.03Z"/>
  <path class="st0" d="M235.25,813.96c-3.38-5.19-6.53-10.09-9.73-14.96-1.87-2.85-9.13-4.55-12.06-2.88-2.03,1.16-1.5,3.2-1.51,4.93-.06,9.33-.15,18.66.07,27.99.09,3.69-1.04,4.87-4.82,4.87-14.12,0-14.16.13-14.2-13.97-.06-26.66-.09-53.32-.09-79.97,0-6.89.06-7.08,6.94-6.87,12.63.37,25.37-1.52,37.86,1.13,24.26,5.14,33.72,30.94,18.4,49.57-3.26,3.97-7.74,6.21-12.91,8.99,8.97,13.47,17.82,26.77,27.25,40.93-7.59,0-14.18.02-20.77-.01-2.01-.01-2.71-1.73-3.61-3.09-3.56-5.43-7.08-10.89-10.83-16.63M224.23,748.79c-8.21,0-12.31,4.15-12.28,12.44,0,1.16.01,2.33.02,3.49.07,16.17.18,16.26,16.26,14.27.33-.04.66-.08.99-.14,9.57-1.8,14.83-7.78,14.28-16.22-.56-8.59-6.2-13.36-16.34-13.83-.66-.03-1.33,0-2.93-.01Z"/>
  <path class="st0" d="M-60.61,779.65c-3.73,6.27-9.1,10.04-16.02,12.95,9.02,13.54,17.83,26.77,27.43,41.18-7.69,0-14.38.1-21.06-.07-1.83-.05-2.51-2.01-3.4-3.38-6.54-10.04-13.07-20.09-19.62-30.12-2.65-4.05-8.02-5.83-12.52-4.32-2.47.82-1.94,2.83-1.95,4.56-.05,9.16,0,18.32-.05,27.48,0,1.79.41,3.66-.75,5.63h-16.97c-1.36-1.65-.93-3.38-.93-4.99-.03-29.81.08-59.61-.12-89.42-.03-4.8,1.34-6.46,6.18-6.19,12.77.73,25.66-1.28,38.34,1.19,12.43,2.42,22.32,8.38,24.81,21.92,1.45,7.93.96,15.93-3.38,23.58M-91.11,748.8c-4.16-.01-8.32.05-12.48-.07-2.89-.08-4.27.94-4.21,4.04.13,7.48.09,14.97,0,22.46-.03,2.66.86,4.09,3.71,4.01,4.32-.13,8.68.14,12.97-.29,10.41-1.03,15.4-7.04,14.81-17.39-.43-7.64-3.53-10.48-14.81-12.77h.01Z"/>
  <path class="st0" d="M-14.12,733.03c11.83,0,23.16.12,34.48-.05,3.66-.05,5,1.17,4.91,4.88-.33,13.63,1.79,11.56-11.58,11.72-8.33.1-16.66.14-24.99-.02-3.46-.07-4.78,1.18-4.67,4.65.18,5.49.13,11-.03,16.49-.09,3.23,1.17,4.42,4.41,4.38,9.66-.13,19.33.08,28.98-.1,3.71-.07,4.94,1.27,4.86,4.93-.26,12.8,1.31,10.67-10.37,10.83-7.83.11-15.66.13-23.49-.02-3.23-.06-4.49,1.11-4.41,4.36.15,6.16.16,12.33,0,18.49-.1,3.54,1.43,4.59,4.79,4.55,10.66-.14,21.33.09,31.98-.12,3.93-.07,5.28,1.31,5.2,5.19-.25,12.37,1.05,10.52-10.2,10.59-14.99.1-29.99-.1-44.98.1-4.19.06-5.93-1-5.91-5.54.12-29.82.07-59.64-.1-89.46-.03-4.56,1.51-6.24,6.1-5.91,4.81.35,9.66.08,14.99.07h.03Z"/>
  <path class="st0" d="M563.85,749.62c-9.32,0-18.15.1-26.97-.03-3.34-.05-4.87.98-4.72,4.57.22,5.32.23,10.66-.01,15.98-.17,3.66,1.07,5.03,4.83,4.96,9.65-.19,19.32.11,28.97-.13,4.21-.11,5.45,1.43,5.35,5.49-.3,12.12,1.09,10.13-9.92,10.27-7.99.1-15.99.17-23.97-.03-3.78-.09-5.47.93-5.25,5.06.31,5.98.2,11.99.03,17.98-.09,3.25,1.15,4.41,4.38,4.37,11.15-.12,22.31.09,33.47-.11,3.95-.07,5.25,1.36,5.18,5.23-.23,12.46.85,10.48-10.26,10.56-15.48.1-30.97-.06-46.45.07-3.54.03-5.04-.95-5.03-4.78.1-30.8.02-61.61.02-92.41,0-.97.21-1.93.29-2.68,1.38-1.19,2.77-.91,4.06-.92,17.32-.02,34.63.07,51.95-.08,3.79-.03,5.72,1.08,5.28,5.07-.02.16,0,.33,0,.5-.05,12.89,1.17,10.9-11.21,11.08l-.02-.02Z"/>
  <path class="st0" d="M435.88,733.03c18.49,0,36.48.13,54.47-.08,4.53-.05,6.11,1.26,5.94,5.91-.45,12.27,1.42,10.58-10.6,10.74-5,.06-9.99,0-14.99.02-4.31,0-6.46,2.24-6.47,6.72,0,23.65,0,47.31-.01,70.96,0,6.49-.03,6.58-6.68,6.49-13.41-.17-11.69,1.91-11.76-11.55-.12-22.15-.17-44.31.04-66.46.04-4.79-1.4-6.49-6.24-6.25-6.81.34-13.66-.05-20.48.1-3.5.08-4.66-1.34-4.59-4.73.28-14.23-1.64-11.53,11.39-11.83,3.16-.07,6.33-.01,9.99-.01v-.03Z"/>
  <path class="st0" d="M383.9,749.59c-8.45,0-12.67,3.99-12.67,12v72.07c-5.62,0-10.88.19-16.12-.07-3.26-.16-2.45-3.1-2.46-5.07-.07-17.81-.05-35.62-.06-53.43,0-6.66-.27-13.33.08-19.97.23-4.55-1.54-5.74-5.79-5.58-6.81.27-13.65-.06-20.47.06-3.63.07-5-1.35-4.92-5.02.3-13.79-1.6-11.42,11.18-11.51,21.31-.15,42.61.08,63.92-.12,4.38-.04,5.8,1.25,5.67,5.66-.37,12.49,1.46,10.81-10.87,10.99-2.33.03-4.66,0-7.49,0h0Z"/>
  <path class="st0" d="M210.97,572.09c5.1.35,10.95-1.96,14.01.98,3.29,3.17,1.16,9.16,1.18,13.9.11,32.45-.03,64.91.16,97.36.03,4.89-1.14,7.07-6.37,6.53-3.95-.41-7.98-.21-11.97-.06-3.21.12-4.47-1.18-4.44-4.38.1-8.32,0-16.64,0-24.96,0-27.46,0-54.92.04-82.39.01-6.87.08-6.87,7.38-6.98h.01Z"/>
  <path class="st0" d="M377.23,673.4c0,4.67-.14,8.84.02,13,.12,3.18-1.06,4.54-4.34,4.42-4.49-.17-9.01-.2-13.5.02-3.68.19-4.98-1.2-4.93-4.89.15-12.66.05-25.33.05-38,0-23.33.12-46.67-.08-70-.04-4.56,1.28-6.35,5.91-5.95,3.8.33,7.68.28,11.49,0,4.13-.3,5.48,1.25,5.44,5.39-.18,18.83-.08,37.67-.07,56.5v39.5h0Z"/>
  <path class="st0" d="M286.91,787.4c-.01-16.47.09-32.44-.1-48.41-.05-4.41,1.19-6.44,5.93-6.01,3.92.36,7.9.07,12.19.07v100.26c-5.16.93-10.13.52-15.06.34-3.58-.13-2.8-3.21-2.82-5.33-.12-13.47-.11-26.95-.14-40.92h0Z"/>
  <path d="M432.67,227.14c-.07-10.8-.07-21.14-.1-31.47,0-2.5.07-4.67,3.55-4.64,11.31.09,22.63.03,33.51.03,1.58,1.12,1.38,2.37,1.38,3.5,0,10.16-.11,20.33-.06,30.49.02,2.98-.69,4.69-4.16,4.64-10-.14-20-.04-29.99-.1-1.6,0-3.47.23-4.12-2.45h-.01Z"/>
  <path d="M512.85,155.04h13.18c1.18.89,1.16,1.93,1.16,2.91.02,10.49-.06,20.98.07,31.47.04,3.22-1.17,4.41-4.39,4.37-9.82-.13-19.65-.09-29.47-.01-2.8.02-4.16-.59-4.09-3.92.22-11.61.09-23.22.09-34.82h23.46-.01Z"/>
  <path d="M473.98,67.21c10.73-.12,21.05-.03,31.37-.23,3.64-.07,5,1.11,4.93,4.85-.19,9.65-.23,19.31.02,28.96.11,4.1-1.54,5.01-5.28,5.01-10.6,0-21.21-.56-32.47.51,0-10.17-.1-20.27.06-30.37.05-2.87-1.15-5.97,1.38-8.73h-.01Z"/>
  <path d="M435.86,110.05c13.09.17,11.13-1.56,11.26,10.89.08,7.65-.1,15.31.03,22.96.06,3.37-1.09,4.8-4.61,4.74-9.48-.16-18.97-.15-28.45-.05-3.48.04-4.65-1.42-4.6-4.79.13-9.81.13-19.63,0-29.45-.04-3.25,1.21-4.4,4.4-4.34,7.15.14,14.31.04,21.96.03h0Z"/>
</svg>